<svg height="512" viewBox="0 0 52 60" width="512" xmlns="http://www.w3.org/2000/svg" xmlns:xlink="http://www.w3.org/1999/xlink"><linearGradient id="linearGradient-1" x1="8.262%" x2="91.781%" y1="16.97%" y2="83.729%"><stop offset="0" stop-color="#d3dff2"/><stop offset=".172" stop-color="#d3dff2"/><stop offset=".2" stop-color="#d3dff2"/><stop offset=".2" stop-color="#dae2f2"/><stop offset=".201" stop-color="#ebeaf2"/><stop offset=".201" stop-color="#f6eff2"/><stop offset=".202" stop-color="#fdf2f2"/><stop offset=".205" stop-color="#fff3f2"/><stop offset=".252" stop-color="#fff3f2"/><stop offset=".26" stop-color="#fff3f2"/><stop offset=".26" stop-color="#d3dff2"/><stop offset=".397" stop-color="#d3dff2"/><stop offset=".42" stop-color="#d3dff2"/><stop offset=".42" stop-color="#dae2f2"/><stop offset=".421" stop-color="#ebeaf2"/><stop offset=".421" stop-color="#f6eff2"/><stop offset=".422" stop-color="#fdf2f2"/><stop offset=".425" stop-color="#fff3f2"/><stop offset=".489" stop-color="#fff3f2"/><stop offset=".5" stop-color="#fff3f2"/><stop offset=".5" stop-color="#f8f0f2"/><stop offset=".5" stop-color="#e7e8f2"/><stop offset=".5" stop-color="#dce3f2"/><stop offset=".5" stop-color="#d5e0f2"/><stop offset=".501" stop-color="#d3dff2"/><stop offset=".706" stop-color="#d3dff2"/><stop offset=".74" stop-color="#d3dff2"/><stop offset=".741" stop-color="#fff3f2"/><stop offset=".835" stop-color="#fff3f2"/><stop offset=".85" stop-color="#fff3f2"/><stop offset=".851" stop-color="#d3dff2"/></linearGradient><g id="Page-1" fill="none" fill-rule="evenodd"><g id="061---tip-alert" fill-rule="nonzero" transform="translate(0 -1)"><g id="color_copy" transform="translate(1 1)"><path id="Shape" d="m50 16v27c0 2.209139-1.790861 4-4 4h-10c-.6290338.0020295-1.2209561.2979907-1.6.8l-7.86 10.48c-.3813276.4562785-.9453566.7199689-1.54.7199689s-1.1586724-.2636904-1.54-.7199689l-7.86-10.48c-.3790439-.5020093-.9709662-.7979705-1.6-.8h-10c-2.209139 0-4-1.790861-4-4v-27c0-2.209139 1.790861-4 4-4h7.32c-1.0308813 4.7913489.5074186 9.7737734 4.06 13.15 2.3588596 2.311053 3.6672425 5.488038 3.62 8.79v6.06c0 1.6568542 1.3431458 3 3 3h6c1.6568542 0 3-1.3431458 3-3v-6.23c-.0487437-3.2229814 1.240139-6.3220925 3.56-8.56 2.8346506-2.6383646 4.4432884-6.3375071 4.44-10.21.0006277-1.0085505-.1066495-2.0142738-.32-3h7.32c2.209139 0 4 1.790861 4 4z" fill="#cad9fc"/><g fill="#a4c2f7"><path id="Shape" d="m12.38 25.15c2.3588596 2.311053 3.6672425 5.488038 3.62 8.79v6.06c0 1.6568542 1.3431458 3 3 3h3c-1.6568542 0-3-1.3431458-3-3v-6.06c.0472425-3.301962-1.2611404-6.478947-3.62-8.79-3.5525814-3.3762266-5.0908813-8.3586511-4.06-13.15h-3c-1.03088129 4.7913489.50741859 9.7737734 4.06 13.15z"/><path id="Shape" d="m46 12h-3c2.209139 0 4 1.790861 4 4v27c0 2.209139-1.790861 4-4 4h3c2.209139 0 4-1.790861 4-4v-27c0-2.209139-1.790861-4-4-4z"/><path id="Shape" d="m31.4 47.8-7.86 10.48c-.012.015-.028.024-.04.038.3855025.4396319.9440864.6885464 1.528753.681238.5846665-.0073083 1.1368541-.2701074 1.511247-.719238l7.86-10.48c.3790439-.5020093.9709662-.7979705 1.6-.8h-3c-.6290338.0020295-1.2209561.2979907-1.6.8z"/></g><path id="Shape" d="m39 15c.0032884 3.8724929-1.6053494 7.5716354-4.44 10.21-2.319861 2.2379075-3.6087437 5.3370186-3.56 8.56v2.23h-12v-2.06c.0472425-3.301962-1.2611404-6.478947-3.62-8.79-3.5525814-3.3762266-5.0908813-8.3586511-4.06-13.15 1.5214694-6.99367822 8.0729349-11.71361205 15.1885275-10.94241344 7.1155925.77119861 12.5037022 6.78516155 12.4914725 13.94241344z" fill="url(#linearGradient-1)"/><path id="Shape" d="m38.68 12c-1.4687303-6.67204071-7.5362577-11.31141752-14.36-10.98-.281.013-.558.045-.835.074 5.4447056.57171956 10.0541599 4.26999124 11.7924306 9.4613395 1.7382708 5.1913483.2851923 10.919598-3.7174306 14.6546605-2.319861 2.2379075-3.6087437 5.3370186-3.56 8.56v2.23h3v-2.23c-.0487437-3.2229814 1.240139-6.3220925 3.56-8.56 2.8346506-2.6383646 4.4432884-6.3375071 4.44-10.21.0006277-1.0085505-.1066495-2.0142738-.32-3z" fill="#cad9fc"/><path id="Shape" d="m31 36v4c0 1.6568542-1.3431458 3-3 3h-6c-1.6568542 0-3-1.3431458-3-3v-4z" fill="#fff"/><path id="Shape" d="m28 36v4c0 1.6568542-1.3431458 3-3 3h3c1.6568542 0 3-1.3431458 3-3v-4z" fill="#e8edfc"/><path id="Shape" d="m16 13c-.0644704.0000236-.1287846-.0063409-.192-.019-.5411314-.1057899-.894529-.6296237-.79-1.171.925-4.761 5.41-6.657 5.6-6.735.330292-.13629682.708208-.08603158.9913905.13186131.2831825.21789288.4286095.57031029.3815.9245s-.2795985.65634187-.6098905.79263869c-.038.015-3.685 1.583-4.4 5.266-.0909587.4700102-.5022694.8096246-.981.81z" fill="#7facfa"/></g><g id="color" fill="#fff" transform="translate(1 13)"><path id="Shape" d="m7 0h-3c-2.209139 0-4 1.790861-4 4v27c0 2.209139 1.790861 4 4 4h3c-2.209139 0-4-1.790861-4-4v-27c0-2.209139 1.790861-4 4-4z"/></g><g id="Icons"><path id="Rectangle-path" d="m0 36h2v8h-2z" fill="#fff"/><g fill="#428dff"><path id="Shape" d="m1.02 41c-.55228475.0027614-1.00223858-.4427153-1.005-.995s.44271525-1.0022386.995-1.005h.01c.55228475 0 1 .4477153 1 1s-.44771525 1-1 1z"/><path id="Shape" d="m5 49h10c.3141693.002469.6095232.1501459.8.4l7.892 10.52c.5767344.6914252 1.4331163 1.0878062 2.3334669 1.080058.9003507-.0077483 1.7497839-.4188094 2.3145331-1.120058l7.86-10.48c.1907733-.2494956.4859395-.3970787.8-.4h10c2.7600532-.0033061 4.9966939-2.2399468 5-5v-27c-.0033061-2.7600532-2.2399468-4.9966939-5-5h-6.552c-1.8621783-6.76120471-8.1663908-11.32512046-15.171-10.983-6.4649067.32465149-11.9974867 4.74805732-13.737 10.983h-6.54c-2.76005315.0033061-4.99669388 2.2399468-5 5v19c.00000001.5522847.44771526 1 1 1s.99999999-.4477153 1-1v-19c0-1.6568542 1.34314575-3 3-3h6.147c-.028.209-.067.415-.085.627-.4263131 4.5779798 1.2805965 9.0970292 4.627 12.25 2.1589602 2.121572 3.355391 5.0344167 3.311 8.061v6.062c.0068148 1.8184116 1.2393149 3.4034067 3 3.858v1.142c0 .5522847.4477153 1 1 1s1-.4477153 1-1v-1h4v1c0 .5522847.4477153 1 1 1s1-.4477153 1-1v-1.142c1.7606851-.4545933 2.9931852-2.0395884 3-3.858v-6.23c-.043588-2.946645 1.1312982-5.780556 3.247-7.832 3.0452518-2.820169 4.7692165-6.7875002 4.753-10.938-.0049846-.6691731-.0540911-1.3372893-.147-2h6.147c1.6568542 0 3 1.3431458 3 3v27c0 1.6568542-1.3431458 3-3 3h-10c-.9432016.0045098-1.8304712.4481446-2.4 1.2l-7.828 10.441c-.4068406.4277665-1.0831112.4456572-1.512.04l-7.86-10.481c-.5692256-.7522204-1.4566883-1.1959517-2.4-1.2h-10c-1.65685425 0-3-1.3431458-3-3 0-.5522847-.44771525-1-1-1s-1 .4477153-1 1c.00330612 2.7600532 2.23994685 4.9966939 5 5zm26-8c0 1.1045695-.8954305 2-2 2h-6c-1.1045695 0-2-.8954305-2-2v-3h10zm3.881-15.523c-2.5190632 2.4304539-3.923291 5.7928576-3.881 9.293v1.23h-10v-1.062c.043568-3.5762117-1.3791458-7.014286-3.937-9.514-3.8706539-3.6641973-5.112526-9.3198334-3.1331173-14.2685953 1.9794088-4.94876191 6.7790259-8.18791952 12.1089463-8.17206556 5.3299205.01585395 10.1101829 3.28350711 12.0601165 8.24395696 1.9499337 4.9604498.6744382 10.6085979-3.2179455 14.2497039z"/><path id="Shape" d="m24 29c-.5522847 0-1 .4477153-1 1v3c0 .5522847.4477153 1 1 1s1-.4477153 1-1v-3c0-.5522847-.4477153-1-1-1z"/><path id="Shape" d="m24 23c-.5522847 0-1 .4477153-1 1v1c0 .5522847.4477153 1 1 1s1-.4477153 1-1v-1c0-.5522847-.4477153-1-1-1z"/><path id="Shape" d="m28 29c-.5522847 0-1 .4477153-1 1v3c0 .5522847.4477153 1 1 1s1-.4477153 1-1v-3c0-.5522847-.4477153-1-1-1z"/><path id="Shape" d="m28 23c-.5522847 0-1 .4477153-1 1v1c0 .5522847.4477153 1 1 1s1-.4477153 1-1v-1c0-.5522847-.4477153-1-1-1z"/><path id="Shape" d="m10 8c.424813.00019929.8033866-.26802335.9440546-.6688708.1406679-.40084745.0127245-.84682031-.3190546-1.1121292l-5-4c-.43133439-.34517797-1.06082203-.27533439-1.406.156s-.27533439 1.06082203.156 1.406l5 4c.17741219.1418687.3978397.2191065.625.219z"/><path id="Shape" d="m42.625 7.781 5-4c.4313344-.34517797.501178-.97466561.156-1.406s-.9746656-.50117797-1.406-.156l-5 4c-.2790244.22329099-.4177293.57847814-.3638658.93176588.0538634.35328774.2921121.65100325.625.781.3328878.12999674.7098414.07252511.9888658-.15076588z"/><path id="Shape" d="m4.219 36.625c.1657145.2072013.40697812.3400545.67067795.3693128.26369984.0292583.52821794-.0474769.73532205-.2133128l5-4c.4313344-.345178.501178-.9746656.156-1.406s-.97466561-.501178-1.406-.156l-5 4c-.20720125.1657145-.3400545.4069781-.3693128.670678-.0292583.2636998.04747691.5282179.2133128.735322z"/><path id="Shape" d="m41.219 31.375c-.1658359.2071041-.2425711.4716222-.2133128.735322.0292583.2636999.1621115.5049635.3693128.670678l5 4c.4313344.345178 1.060822.2753344 1.406-.156s.2753344-1.060822-.156-1.406l-5-4c-.2071041-.1658359-.4716222-.2425711-.735322-.2133128-.2636999.0292583-.5049635.1621115-.670678.3693128z"/><path id="Shape" d="m8 17h-3c-.55228475 0-1 .4477153-1 1s.44771525 1 1 1h3c.55228475 0 1-.4477153 1-1s-.44771525-1-1-1z"/><path id="Shape" d="m47 19c.5522847 0 1-.4477153 1-1s-.4477153-1-1-1h-3c-.5522847 0-1 .4477153-1 1s.4477153 1 1 1z"/></g></g></g></g></svg>